<?xml version="1.0" encoding="UTF-8" standalone="no"?>
<svg
   xmlns:dc="http://purl.org/dc/elements/1.1/"
   xmlns:cc="http://creativecommons.org/ns#"
   xmlns:rdf="http://www.w3.org/1999/02/22-rdf-syntax-ns#"
   xmlns:svg="http://www.w3.org/2000/svg"
   xmlns="http://www.w3.org/2000/svg"
   width="2.9127455mm"
   height="4.5723419mm"
   viewBox="0 0 2.9127455 4.572342"
   version="1.1"
   id="svg1764">
  <defs
     id="defs1758" />
  <metadata
     id="metadata1761">
    <rdf:RDF>
      <cc:Work
         rdf:about="">
        <dc:format>image/svg+xml</dc:format>
        <dc:type
           rdf:resource="http://purl.org/dc/dcmitype/StillImage" />
        <dc:title></dc:title>
      </cc:Work>
    </rdf:RDF>
  </metadata>
  <g
     id="layer1"
     transform="translate(-118.66053,-124.60193)">
    <g
       id="g1499"
       transform="matrix(0.8899607,0,0,0.8899607,83.180828,-75.652556)"
       style="fill:none;fill-opacity:1;stroke:#508090;stroke-width:0.33709353;stroke-miterlimit:4;stroke-dasharray:none;stroke-opacity:1">
      <path
         id="path1353"
         d="m 41.973287,228.21724 c 0.580059,0.12116 0.997652,0.46027 0.997653,0.85966 7e-6,0.50104 -0.657196,0.90722 -1.4679,0.90722 -0.810704,0 -1.467906,-0.40618 -1.467899,-0.90722 10e-7,-0.38584 0.389728,-0.71541 0.939161,-0.84657"
         style="opacity:1;fill:none;fill-opacity:1;stroke:#508090;stroke-width:0.33709353;stroke-linecap:round;stroke-linejoin:round;stroke-miterlimit:4;stroke-dasharray:none;stroke-dashoffset:0;stroke-opacity:1;paint-order:normal" />
      <path
         id="path1348"
         d="m 42.721955,226.42763 c -5e-6,0.68711 -1.244113,2.49794 -1.244113,2.49794 0,0 -1.244109,-1.81083 -1.244113,-2.49794 0,-0.6871 0.557008,-1.24411 1.244113,-1.24411 0.687104,0 1.244113,0.55701 1.244113,1.24411 z"
         style="opacity:1;fill:none;fill-opacity:1;stroke:#508090;stroke-width:0.33709353;stroke-linecap:round;stroke-linejoin:round;stroke-miterlimit:4;stroke-dasharray:none;stroke-dashoffset:0;stroke-opacity:1;paint-order:normal" />
      <circle
         r="0.374906"
         cy="226.46507"
         cx="41.495193"
         id="path1346"
         style="opacity:1;fill:none;fill-opacity:1;stroke:#508090;stroke-width:0.33709353;stroke-linecap:round;stroke-linejoin:round;stroke-miterlimit:4;stroke-dasharray:none;stroke-dashoffset:0;stroke-opacity:1;paint-order:normal" />
    </g>
  </g>
</svg>
